# xmcd
# Copyright (C) 1995-1998 Ti Kan
#
# Track frame offsets:
#       150
#       1897
#       17342
#       28805
#       47505
#       59787
#       74772
#       95535
#       115352
#       135855
#       150845
#       165650
#       181262
#       197337
#
# Disc length: 2909 seconds
#
# Revision: 0
# Processed by: cddbd v1.5.2PL0 Copyright (c) Steve Scherf et al.
# Submitted via: CD-Import v1.0
#
DISCID=ab0b5b0e
DTITLE=Jet - Shine On
DYEAR=2006
DGENRE=
TTITLE0=L'espirit D'escalier
TTITLE1=Holiday
TTITLE2=Put Your Money Where Your Mouth Is
TTITLE3=Bring It On Back
TTITLE4=That's All Lies
TTITLE5=King Horses
TTITLE6=Shine On
TTITLE7=Come On Come On
TTITLE8=Stand Up
TTITLE9=Rip It Up
TTITLE10=Skin And Bones
TTITLE11=Shiny Magazine
TTITLE12=Eleanor
TTITLE13=All You Have To Do
EXTD=
EXTT0=
EXTT1=
EXTT2=
EXTT3=
EXTT4=
EXTT5=
EXTT6=
EXTT7=
EXTT8=
EXTT9=
EXTT10=
EXTT11=
EXTT12=
EXTT13=
PLAYORDER=
